{"title":"The Family 2013 R5 (Cam Audio) XviD Feel-Free","uid":9211575,"size":1586071093,"categoryP":"video","categoryS":"movies","magnet":"?xt=urn:btih:67387f958f024b64ebea901f53b693e133120c35&amp;dn=The+Family+2013+R5+%28Cam+Audio%29+XviD+Feel-Free&amp;tr=udp%3A%2F%2Ftracker.openbittorrent.com%3A80&amp;tr=udp%3A%2F%2Fopen.demonii.com%3A1337&amp;tr=udp%3A%2F%2Ftracker.coppersurfer.tk%3A6969&amp;tr=udp%3A%2F%2Fexodus.desync.com%3A6969","seeders":4,"leechers":3,"uploader":"SaM","files":8,"time":1384796469,"description":"Genre:Comedy | Crime | Thriller\nLanguage:English\nIMDb:http://www.imdb.com/title/tt2404311/\nSource:DVD5.R5/MiLLENiUM Cam Audio Thanks\nSample:Never\nEncoder:Tony\n\nFormat : AVI\nFormat/Info : Audio Video Interleave\nFile size : 1.48 GiB\nDuration : 1h 46mn\nOverall bit rate : 1 976 Kbps\n\nVideo\nID : 0\nFormat : MPEG-4 Visual\nFormat profile : Advanced Simple@L5\nFormat settings, BVOP : 1\nFormat settings, QPel : No\nFormat settings, GMC : No warppoints\nFormat settings, Matrix : Default (H.263)\nCodec ID : XVID\nCodec ID/Hint : XviD\nDuration : 1h 46mn\nBit rate : 1 582 Kbps\nWidth : 640 pixels\nHeight : 272 pixels\nDisplay aspect ratio : 2.35:1\nFrame rate : 25.000 fps\nColor space : YUV\nChroma subsampling : 4:2:0\nBit depth : 8 bits\nScan type : Progressive\nCompression mode : Lossy\nBits/(Pixel*Frame) : 0.363\nStream size : 1.18 GiB (80%)\nWriting library : XviD 1.2.1 (UTC 2008-12-04)\n\nAudio\nID : 1\nFormat : AC-3\nFormat/Info : Audio Coding 3\nMode extension : CM (complete main)\nCodec ID : 2000\nDuration : 1h 46mn\nBit rate mode : Constant\nBit rate : 384 Kbps\nChannel(s) : 2 channels\nChannel positions : Front: L R\nSampling rate : 48.0 KHz\nBit depth : 16 bits\nCompression mode : Lossy\nStream size : 294 MiB (19%)\nAlignment : Aligned on interleaves\nInterleave, duration : 40 ms (1.00 video frame)\nInterleave, preload duration : 512 ms\n &lt;a href=&quot;\nhttp://img199.imageshack.us/img199/8776/olh4.png&quot; rel=&quot;nofollow&quot; target=&quot;_NEW&quot;&gt;\nhttp://img199.imageshack.us/img199/8776/olh4.png&lt;/a&gt;\n &lt;a href=&quot;\nhttp://img850.imageshack.us/img850/4125/04fs.png&quot; rel=&quot;nofollow&quot; target=&quot;_NEW&quot;&gt;\nhttp://img850.imageshack.us/img850/4125/04fs.png&lt;/a&gt;\n &lt;a href=&quot;\nhttp://img12.imageshack.us/img12/9162/jo7r.png&quot; rel=&quot;nofollow&quot; target=&quot;_NEW&quot;&gt;\nhttp://img12.imageshack.us/img12/9162/jo7r.png&lt;/a&gt;","torrent":{"xt":"urn:btih:67387f958f024b64ebea901f53b693e133120c35","amp;dn":"The+Family+2013+R5+%28Cam+Audio%29+XviD+Feel-Free","amp;tr":["udp%3A%2F%2Ftracker.openbittorrent.com%3A80","udp%3A%2F%2Fopen.demonii.com%3A1337","udp%3A%2F%2Ftracker.coppersurfer.tk%3A6969","udp%3A%2F%2Fexodus.desync.com%3A6969"],"infoHash":"67387f958f024b64ebea901f53b693e133120c35","infoHashBuffer":{"type":"Buffer","data":[103,56,127,149,143,2,75,100,235,234,144,31,83,182,147,225,51,18,12,53]},"announce":[],"urlList":[]}}